<?xml version="1.0"?>
<svg xmlns="http://www.w3.org/2000/svg" id="Layer_1" enable-background="new 0 0 512 512" height="512px" viewBox="0 0 512 512" width="512px" class=""><g><g><g><g><g><g><g><g><g><g><circle cx="256" cy="256" fill="#ffce00" r="256" data-original="#FFCE00" class="" style="fill:#7584F2" data-old_color="#ffce00"/></g></g></g></g></g></g></g></g><path d="m512 256c0-10.303-.609-20.464-1.792-30.449l-57.028-57.028-39.308 71.863-157.872-157.872-36.761 170.491-159.615 19.771 81.349 81.349-42.546 30.071 125.858 125.858c10.392 1.285 20.976 1.946 31.715 1.946 141.385 0 256-114.615 256-256z" fill="#ffa300" data-original="#FFA300" class="active-path" style="fill:#04458F" data-old_color="#ffa300"/><g><path d="m59.624 231.075h185.049v41.701h-185.049z" fill="#a3d4ff" data-original="#A3D4FF" class=""/></g><g><path d="m268.13 168.523h185.049v41.701h-185.049z" fill="#fe6a16" data-original="#FE6A16" class=""/></g><g><path d="m268.13 206.64h185.049v41.701h-185.049z" fill="#ff9500" data-original="#FF9500" class=""/></g><g><path d="m268.13 244.758h185.049v41.701h-185.049z" fill="#a3d4ff" data-original="#A3D4FF" class=""/></g><g><path d="m268.13 282.875h185.049v41.701h-185.049z" fill="#00c8c8" data-original="#00C8C8" class=""/></g><g><path d="m268.13 320.993h185.049v41.701h-185.049z" fill="#7584f2" data-original="#7584F2" class=""/></g><g><path d="m98.427 384.197 157.573-301.683 157.573 301.683z" fill="#fff" data-original="#FFF" class=""/></g><g><path d="m256 82.514.121 301.683h157.452z" fill="#e9edf5" data-original="#E9EDF5" class="" style="fill:#E9EDF5"/></g></g></g> </svg>
